HIERARCHY
ROOT Beta:Hips
{
	OFFSET 0.00 0.00 0.00
	CHANNELS 6 Xposition Yposition Zposition Yrotation Xrotation Zrotation
	JOINT Beta:Spine
	{
		OFFSET	0.0000	9.2263	1.5771
		CHANNELS 3 Xrotation Yrotation Zrotation
		JOINT Beta:Spine1
		{
			OFFSET	0.0000	16.2540	-0.1656
			CHANNELS 3 Xrotation Yrotation Zrotation
			JOINT Beta:Spine2
			{
				OFFSET	0.0000	13.6396	-1.2923
				CHANNELS 3 Xrotation Yrotation Zrotation
				JOINT Beta:Neck
				{
					OFFSET	0.0000	13.8774	-4.3542
					CHANNELS 3 Xrotation Yrotation Zrotation
					JOINT Beta:Neck1
					{
						OFFSET	0.0000	4.3400	0.9269
						CHANNELS 3 Xrotation Yrotation Zrotation
						JOINT Beta:Head
						{
							OFFSET	0.0000	4.0266	0.8585
							CHANNELS 3 Xrotation Yrotation Zrotation
							End Site
							{
								OFFSET 0.0000 23.0297 0.1231
							}
						}
					}
				}
				JOINT Beta:LeftShoulder
				{
					OFFSET	6.1442	10.1870	-3.7932
					CHANNELS 3 Zrotation Xrotation Yrotation
					JOINT Beta:LeftArm
					{
						OFFSET	12.3191	-1.1130	-1.7935
						CHANNELS 3 Zrotation Xrotation Yrotation
						JOINT Beta:LeftForeArm
						{
							OFFSET	27.6870	0.0000	0.0000
							CHANNELS 3 Xrotation Zrotation Yrotation
							JOINT Beta:LeftHand
							{
								OFFSET	27.8738	0.0000	0.0000
								CHANNELS 3 Zrotation Yrotation Xrotation
								JOINT Beta:LeftHandThumb1
								{
									OFFSET	2.3785	-1.0029	2.6209
									CHANNELS 3 Zrotation Xrotation Yrotation
									JOINT Beta:LeftHandThumb2
									{
										OFFSET	3.3624	-1.0029	2.8398
										CHANNELS 3 Zrotation Xrotation Yrotation
										JOINT Beta:LeftHandThumb3
										{
											OFFSET	4.5018	-1.3445	2.1783
											CHANNELS 3 Zrotation Xrotation Yrotation
											End Site
											{
												OFFSET 2.6000 -1.0000 1.0000
											}
										}
									}
								}
								JOINT Beta:LeftHandMiddle1
								{
									OFFSET	10.4639	0.6148	0.4298
									CHANNELS 3 Zrotation Xrotation Yrotation
									JOINT Beta:LeftHandMiddle2
									{
										OFFSET	5.7921	0.0000	0.0000
										CHANNELS 3 Zrotation Xrotation Yrotation
										JOINT Beta:LeftHandMiddle3
										{
											OFFSET	3.7132	0.0000	0.0000
											CHANNELS 3 Zrotation Xrotation Yrotation
											End Site
											{
												OFFSET 2.3000 0.0000 0.0000
											}
										}
									}
								}
								JOINT Beta:LeftHandIndex1
								{
									OFFSET	10.3945	0.6148	2.7055
									CHANNELS 3 Zrotation Xrotation Yrotation
									JOINT Beta:LeftHandIndex2
									{
										OFFSET	5.5493	0.0000	0.0000
										CHANNELS 3 Zrotation Xrotation Yrotation
										JOINT Beta:LeftHandIndex3
										{
											OFFSET	3.3911	0.0000	0.0000
											CHANNELS 3 Zrotation Xrotation Yrotation
											End Site
											{
												OFFSET 2.5000 0.0000 0.0000
											}
										}
									}
								}
								JOINT Beta:LeftHandRing1
								{
									OFFSET	10.3252	0.3211	-1.8755
									CHANNELS 3 Zrotation Xrotation Yrotation
									JOINT Beta:LeftHandRing2
									{
										OFFSET	5.4452	0.0000	0.0000
										CHANNELS 3 Zrotation Xrotation Yrotation
										JOINT Beta:LeftHandRing3
										{
											OFFSET	3.7132	0.0000	0.0000
											CHANNELS 3 Zrotation Xrotation Yrotation
											End Site
											{
												OFFSET 2.0000 0.0000 0.0000
											}
										}
									}
								}
								JOINT Beta:LeftHandPinky1
								{
									OFFSET	10.0130	-0.0783	-3.9671
									CHANNELS 3 Zrotation Xrotation Yrotation
									JOINT Beta:LeftHandPinky2
									{
										OFFSET	3.6763	0.0000	0.0000
										CHANNELS 3 Zrotation Xrotation Yrotation
										JOINT Beta:LeftHandPinky3
										{
											OFFSET	2.8113	0.0000	0.0000
											CHANNELS 3 Zrotation Xrotation Yrotation
											End Site
											{
												OFFSET 2.9000 0.0000 0.0000
											}
										}
									}
								}
							}
						}
					}
				}
				JOINT Beta:RightShoulder
				{
					OFFSET	-6.1402	10.1870	-3.7932
					CHANNELS 3 Zrotation Xrotation Yrotation
					JOINT Beta:RightArm
					{
						OFFSET	-12.3231	-1.1130	-1.7935
						CHANNELS 3 Zrotation Xrotation Yrotation
						JOINT Beta:RightForeArm
						{
							OFFSET	-27.6870	0.0000	0.0000
							CHANNELS 3 Xrotation Zrotation Yrotation
							JOINT Beta:RightHand
							{
								OFFSET	-27.8738	0.0000	0.0000
								CHANNELS 3 Zrotation Yrotation Xrotation
								JOINT Beta:RightHandThumb1
								{
									OFFSET	-2.5178	-0.9367	2.5137
									CHANNELS 3 Zrotation Xrotation Yrotation
									JOINT Beta:RightHandThumb2
									{
										OFFSET	-3.2638	-1.0870	2.9669
										CHANNELS 3 Zrotation Xrotation Yrotation
										JOINT Beta:RightHandThumb3
										{
											OFFSET	-4.4165	-1.3703	2.1350
											CHANNELS 3 Zrotation Xrotation Yrotation
											End Site
											{
												OFFSET -2.6000 -1.0000 1.0000
											}
										}
									}
								}
								JOINT Beta:RightHandIndex1
								{
									OFFSET	-10.4665	0.4896	2.7120
									CHANNELS 3 Zrotation Xrotation Yrotation
									JOINT Beta:RightHandIndex2
									{
										OFFSET	-5.3768	0.0000	0.0000
										CHANNELS 3 Zrotation Xrotation Yrotation
										JOINT Beta:RightHandIndex3
										{
											OFFSET	-3.3855	0.0000	0.0000
											CHANNELS 3 Zrotation Xrotation Yrotation
											End Site
											{
												OFFSET -2.6000 0.0000 0.0000
											}
										}
									}
								}
								JOINT Beta:RightHandMiddle1
								{
									OFFSET	-10.7596	0.4896	0.4278
									CHANNELS 3 Zrotation Xrotation Yrotation
									JOINT Beta:RightHandMiddle2
									{
										OFFSET	-5.6168	0.0000	0.0000
										CHANNELS 3 Zrotation Xrotation Yrotation
										JOINT Beta:RightHandMiddle3
										{
											OFFSET	-3.7364	0.0000	0.0000
											CHANNELS 3 Zrotation Xrotation Yrotation
											End Site
											{
												OFFSET -2.3000 0.0000 0.0000
											}
										}
									}
								}
								JOINT Beta:RightHandRing1
								{
									OFFSET	-10.4702	0.3879	-1.9363
									CHANNELS 3 Zrotation Xrotation Yrotation
									JOINT Beta:RightHandRing2
									{
										OFFSET	-5.4013	0.0000	0.0000
										CHANNELS 3 Zrotation Xrotation Yrotation
										JOINT Beta:RightHandRing3
										{
											OFFSET	-3.3916	0.0000	0.0000
											CHANNELS 3 Zrotation Xrotation Yrotation
											End Site
											{
												OFFSET -2.2000 0.0000 0.0000
											}
										}
									}
								}
								JOINT Beta:RightHandPinky1
								{
									OFFSET	-9.9715	-0.1191	-3.9540
									CHANNELS 3 Zrotation Xrotation Yrotation
									JOINT Beta:RightHandPinky2
									{
										OFFSET	-3.6528	0.0000	0.0000
										CHANNELS 3 Zrotation Xrotation Yrotation
										JOINT Beta:RightHandPinky3
										{
											OFFSET	-2.7820	0.0000	0.0000
											CHANNELS 3 Zrotation Xrotation Yrotation
											End Site
											{
												OFFSET -2.9000 0.0000 0.0000
											}
										}
									}
								}
							}
						}
					}
				}
			}
		}
	}
	JOINT Beta:LeftUpLeg
	{
		OFFSET	9.6338	-3.2733	0.0000
		CHANNELS 3 Xrotation Yrotation Zrotation
		JOINT Beta:LeftLeg
		{
			OFFSET	0.0000	-41.7300	-1.7300
			CHANNELS 3 Xrotation Yrotation Zrotation
			JOINT Beta:LeftFoot
			{
				OFFSET	0.0126	-39.1900	-0.8477
				CHANNELS 3 Xrotation Yrotation Zrotation
				JOINT Beta:LeftToeBase
				{
					OFFSET	-0.1833	-12.1931	8.2823
					CHANNELS 3 Xrotation Yrotation Zrotation
					End Site
					{
						OFFSET 0.0000 0.0000 10.1681
					}
				}
			}
		}
	}
	JOINT Beta:RightUpLeg
	{
		OFFSET	-9.6338	-3.2733	0.0000
		CHANNELS 3 Xrotation Yrotation Zrotation
		JOINT Beta:RightLeg
		{
			OFFSET	0.0000	-41.7300	-1.7300
			CHANNELS 3 Xrotation Yrotation Zrotation
			JOINT Beta:RightFoot
			{
				OFFSET	0.0126	-39.1900	-0.8477
				CHANNELS 3 Xrotation Yrotation Zrotation
				JOINT Beta:RightToeBase
				{
					OFFSET	-0.1833	-12.1931	8.2823
					CHANNELS 3 Xrotation Yrotation Zrotation
					End Site
					{
						OFFSET 0.0032 0.0000 10.1681
					}
				}
			}
		}
	}
}
MOTION
Frames: 4
Frame Time: 0.0333333
-7.3984 95.6545 -56.1612 26.5690 -5.2218 -1.7075 3.3503 1.9865 -1.8959 0.8570 0.5584 -0.0678 0.8581 0.5541 -0.0722 -0.6151 -0.2763 0.3582 -0.0000 0.0000 -0.0000 5.4270 -1.2497 -0.4124 -18.7576 2.0888 -4.7102 -51.6582 7.8889 -2.0247 0.0000 0.0000 -5.0209 -0.0413 3.0065 21.9984 8.0229 2.2940 6.1505 -7.3935 10.0019 9.5155 20.2486 -22.8247 -18.2727 -35.0021 0.0032 0.3072 -31.3014 0.0022 -0.0078 -20.6418 0.0010 -0.0053 -25.6618 0.0037 -3.4357 -29.3251 0.0019 -0.0074 -16.6951 0.0006 -0.0043 -36.5456 0.0034 4.2705 -41.3452 0.0037 -0.0099 -15.8544 0.0006 -0.0041 -33.1995 -0.1281 1.5120 -28.5800 0.0018 -0.0072 -19.8488 0.0009 -0.0051 18.8518 0.6674 -0.8965 57.2941 6.9280 11.4356 0.0000 0.0000 19.0970 -12.0901 12.8447 -0.5656 -3.8249 -2.7132 -4.2572 0.0929 9.0003 -15.0274 -17.1574 -9.6254 19.5628 20.0201 0.0006 1.9161 41.1131 0.0019 0.0052 18.5809 0.0004 0.0025 33.0570 0.0015 -0.8569 38.1604 0.0017 0.0049 14.6376 0.0003 0.0020 39.3765 0.0020 -3.8441 33.8969 0.0013 0.0044 17.1753 0.0003 0.0023 42.2958 0.0023 0.2995 38.4750 0.0017 0.0049 26.1430 0.0008 0.0035 -6.9729 12.7036 5.6896 23.4337 -10.0188 -1.6474 -9.7374 0.0475 -1.3961 -2.1997 -0.0000 0.0897 -13.0195 -9.9045 -1.9350 50.4568 -6.2563 1.9043 -3.2359 -0.0682 -0.7856 -0.5187 0.0000 -0.0000 
-8.4033 95.2115 -58.3522 26.9872 -5.5677 -1.3251 3.1009 2.8555 -2.1511 0.8394 0.8013 -0.0808 0.8416 0.7960 -0.0874 -0.5991 -0.3608 0.3589 -0.0000 0.0000 -0.0000 5.6243 -1.8780 -0.3878 -18.4076 1.9044 -4.0745 -52.6288 8.5591 3.6658 -0.0000 0.0000 -5.6312 -0.5956 3.5560 25.0231 8.0228 2.2940 6.1505 -7.3935 10.0019 9.5155 20.2486 -22.8247 -18.2727 -35.0021 0.0032 0.3072 -31.3014 0.0022 -0.0078 -20.6418 0.0010 -0.0053 -25.6618 0.0037 -3.4357 -29.3251 0.0019 -0.0074 -16.6951 0.0006 -0.0043 -36.5456 0.0034 4.2705 -41.3452 0.0037 -0.0099 -15.8544 0.0006 -0.0041 -33.1995 -0.1281 1.5120 -28.5800 0.0018 -0.0072 -19.8488 0.0009 -0.0051 18.9340 0.7047 -0.7589 55.8484 7.1060 14.0482 0.0000 -0.0000 20.4572 -12.3231 13.4347 -1.3205 -3.8249 -2.7132 -4.2572 0.0929 9.0003 -15.0274 -17.1574 -9.6254 19.5628 20.0201 0.0006 1.9162 41.1131 0.0020 0.0052 18.5809 0.0004 0.0025 33.0570 0.0015 -0.8569 38.1604 0.0017 0.0049 14.6376 0.0003 0.0020 39.3765 0.0020 -3.8441 33.8969 0.0014 0.0044 17.1753 0.0003 0.0024 42.2959 0.0023 0.2995 38.4750 0.0017 0.0049 26.1430 0.0008 0.0035 -9.0184 12.2965 5.3998 25.2737 -9.9901 -1.7784 -10.1060 -0.2395 -0.8762 -1.3241 0.0000 0.0000 -8.6190 -9.6577 -1.6877 52.3970 -3.0108 1.0829 -1.0617 0.0188 -0.0438 -0.6240 -0.0000 -0.0000 
-9.6160 94.6582 -60.6668 27.4693 -5.6902 -0.9697 2.8387 3.8344 -2.4460 0.8232 1.0843 -0.0523 0.8276 1.0773 -0.0613 -0.6106 -0.4492 0.3196 -0.0000 0.0000 -0.0000 5.5342 -2.7202 -0.4224 -18.2572 1.7720 -3.5811 -53.6747 8.0637 8.7330 0.0000 -0.0000 -5.7721 -1.0182 4.1714 27.1217 8.0229 2.2940 6.1505 -7.3935 10.0019 9.5155 20.2486 -22.8247 -18.2727 -35.0021 0.0032 0.3072 -31.3014 0.0022 -0.0078 -20.6417 0.0010 -0.0053 -25.6619 0.0037 -3.4357 -29.3251 0.0019 -0.0074 -16.6951 0.0006 -0.0043 -36.5456 0.0034 4.2705 -41.3452 0.0037 -0.0099 -15.8544 0.0006 -0.0041 -33.1995 -0.1281 1.5120 -28.5800 0.0018 -0.0072 -19.8488 0.0009 -0.0051 18.7262 0.7275 -0.6462 54.5199 7.0459 16.4455 -0.0000 0.0000 21.6797 -12.1879 13.6366 -1.5027 -3.8249 -2.7132 -4.2572 0.0928 9.0003 -15.0274 -17.1574 -9.6254 19.5627 20.0201 0.0006 1.9162 41.1131 0.0020 0.0052 18.5809 0.0004 0.0025 33.0570 0.0015 -0.8569 38.1604 0.0017 0.0049 14.6376 0.0003 0.0020 39.3765 0.0020 -3.8441 33.8969 0.0013 0.0044 17.1752 0.0003 0.0024 42.2959 0.0023 0.2995 38.4750 0.0017 0.0049 26.1430 0.0008 0.0035 -11.6585 11.8104 5.2261 27.4166 -9.9668 -1.8775 -10.3539 -0.4386 -0.7374 -0.6190 -0.0000 -0.0000 -3.6949 -9.2138 -1.2177 51.4584 0.3450 0.2962 3.2357 0.2723 2.5726 -1.4374 0.0062 -0.9158 
-11.0133 93.9945 -63.1341 28.0075 -5.7382 -0.7278 2.7149 4.8488 -2.6217 0.8044 1.3774 -0.0350 0.8116 1.3691 -0.0463 -0.6342 -0.5584 0.3078 -0.0000 0.0000 -0.0000 5.4165 -3.6319 -0.3762 -17.9461 1.6408 -3.1235 -54.5786 6.4995 13.1435 -0.0000 -0.0000 -5.3420 -1.1672 5.0866 27.2335 8.0228 2.2940 6.1505 -7.3935 10.0019 9.5155 20.2486 -22.8247 -18.2727 -35.0021 0.0032 0.3072 -31.3014 0.0022 -0.0078 -20.6418 0.0010 -0.0053 -25.6619 0.0037 -3.4357 -29.3251 0.0019 -0.0074 -16.6951 0.0006 -0.0043 -36.5456 0.0034 4.2705 -41.3452 0.0037 -0.0099 -15.8544 0.0006 -0.0041 -33.1995 -0.1281 1.5120 -28.5800 0.0018 -0.0072 -19.8488 0.0009 -0.0051 18.5448 0.7773 -0.4265 53.2896 6.8558 18.3847 0.0000 -0.0000 22.8462 -11.9075 13.8458 -1.4018 -3.8249 -2.7132 -4.2572 0.0929 9.0003 -15.0274 -17.1574 -9.6254 19.5627 20.0201 0.0006 1.9161 41.1131 0.0020 0.0052 18.5809 0.0004 0.0025 33.0570 0.0015 -0.8569 38.1604 0.0017 0.0049 14.6376 0.0003 0.0020 39.3765 0.0020 -3.8441 33.8969 0.0014 0.0044 17.1753 0.0004 0.0023 42.2959 0.0023 0.2995 38.4750 0.0017 0.0049 26.1431 0.0008 0.0035 -15.1001 11.2868 5.3227 30.2633 -9.9537 -1.9475 -9.8712 -0.7283 -1.0781 -0.1984 -0.0000 0.0000 1.4891 -8.7655 -0.5131 48.0062 3.7119 -0.3895 9.0315 0.9119 5.3084 -4.9609 0.5602 -7.9893 
